<?xml version="1.0" standalone="no"?>
<!DOCTYPE svg PUBLIC "-//W3C//DTD SVG 20010904//EN"
 "http://www.w3.org/TR/2001/REC-SVG-20010904/DTD/svg10.dtd">
<svg version="1.0" xmlns="http://www.w3.org/2000/svg"
 width="260.000000pt" height="260.000000pt" viewBox="0 0 260.000000 260.000000"
 preserveAspectRatio="xMidYMid meet">
<metadata>
Created by potrace 1.11, written by Peter Selinger 2001-2013
</metadata>
<g transform="translate(0.000000,260.000000) scale(0.100000,-0.100000)"
fill="#000000" stroke="none">
<path d="M0 1300 l0 -1300 46 0 c27 0 43 4 39 10 -3 6 -1 10 4 10 6 0 11 -4
11 -10 0 -6 137 -10 390 -10 l390 0 0 48 c0 52 12 72 45 72 39 0 50 -17 49
-70 l0 -50 344 0 c302 0 343 2 338 15 -3 8 -1 15 5 15 5 0 12 -7 15 -15 5 -12
26 -15 104 -15 136 0 147 5 149 70 1 63 -5 75 -27 58 -12 -9 -11 -6 2 10 32
37 41 27 40 -44 0 -57 2 -68 18 -72 10 -2 18 -8 18 -13 0 -5 137 -9 310 -9
l310 0 0 1300 0 1300 -50 0 c-43 0 -50 -3 -50 -20 0 -11 -5 -20 -11 -20 -6 0
-8 9 -4 20 6 19 2 20 -159 20 -148 0 -194 -7 -153 -23 6 -3 -1 -5 -18 -5 -16
0 -24 2 -17 5 43 17 -12 23 -220 22 -128 -1 -226 -3 -217 -6 34 -9 54 -81 52
-188 -2 -132 -10 -151 -65 -162 -50 -11 -115 1 -140 24 -37 33 -51 157 -28
241 6 26 22 50 43 66 l32 26 -282 0 c-216 0 -282 -3 -286 -12 -3 -10 -9 -10
-25 -1 -16 10 -141 13 -512 13 l-490 0 0 -1300z m531 1230 c10 0 13 13 9 45
-1 15 1 17 10 9 18 -18 8 -59 -14 -59 -25 0 -41 27 -31 51 8 16 10 14 13 -13
2 -18 7 -33 13 -33z m273 54 c22 -9 22 -80 0 -88 -36 -14 -62 52 -32 82 14 14
12 14 32 6z m-522 -44 c3 -35 1 -40 -17 -39 -11 0 -14 3 -7 6 15 6 16 53 1 53
-5 0 -7 5 -4 10 13 20 23 9 27 -30z m1143 -20 c0 -28 -4 -35 -20 -35 -13 0
-21 8 -23 23 -5 34 5 54 25 50 13 -2 18 -13 18 -38z m-1323 0 c3 -17 0 -30 -6
-30 -6 0 -11 14 -11 30 0 17 3 30 6 30 4 0 9 -13 11 -30z m1080 -25 c3 -38 0
-45 -15 -45 -10 0 -15 5 -12 10 12 20 15 60 5 60 -6 0 -8 5 -5 10 13 21 23 8
27 -35z m-568 3 c13 -38 -6 -78 -38 -78 -19 0 -25 6 -30 35 -4 20 -2 44 4 55
16 29 52 22 64 -12z m351 23 c16 -7 12 -10 -22 -15 -44 -8 -68 -2 -58 15 7 11
52 11 80 0z m57 -21 c3 -17 0 -30 -6 -30 -6 0 -11 14 -12 30 -1 39 12 39 18 0z
m1483 -16 c0 -19 -5 -29 -15 -29 -16 0 -25 28 -16 51 10 25 31 10 31 -22z
m-2085 -138 l0 -165 35 -3 c20 -2 36 -7 38 -13 1 -6 -39 -11 -101 -13 -81 -2
-103 0 -100 10 3 7 23 14 46 16 l42 3 0 133 c0 73 -3 135 -6 139 -4 3 -22 0
-40 -8 -22 -9 -36 -10 -40 -4 -7 12 -10 9 46 42 81 48 80 50 80 -137z m1758
108 c3 -34 -18 -60 -43 -50 -9 3 -15 18 -15 39 0 40 7 49 35 45 14 -2 21 -12
23 -34z m212 -24 c0 -44 -22 -65 -52 -49 -25 13 -25 84 -1 98 30 16 53 -5 53
-49z m-2282 -17 c-3 -30 -25 -42 -34 -19 -9 22 2 46 21 46 12 0 15 -8 13 -27z
m172 -7 c0 -13 3 -32 6 -40 4 -11 2 -15 -8 -11 -10 4 -13 15 -10 32 3 15 -1
29 -9 34 -11 7 -10 9 4 9 11 0 17 -8 17 -24z m535 -31 c0 -36 -2 -40 -25 -40
-20 0 -26 6 -28 28 -5 42 5 59 30 55 20 -3 23 -9 23 -43z m219 30 c8 -21 -3
-45 -20 -45 -8 0 -17 7 -20 15 -8 21 2 45 20 45 7 0 16 -7 20 -15z m424 -7 c7
-7 12 -36 12 -65 0 -41 -4 -54 -19 -63 -12 -6 -21 -23 -23 -43 -2 -24 -8 -32
-23 -32 -17 0 -20 8 -23 60 -9 144 -6 155 36 155 15 0 33 -5 40 -12z m1050
-27 c-3 -30 -31 -36 -36 -8 -6 28 5 47 23 41 10 -4 15 -16 13 -33z m-1568 -56
c0 -51 4 -66 18 -74 16 -9 16 -10 0 -16 -21 -8 -74 -3 -70 8 1 4 5 7 8 6 13
-2 24 27 24 64 0 26 -4 37 -15 37 -20 0 -19 10 3 26 29 22 32 17 32 -51z m249
51 c7 -8 11 -27 9 -43 -2 -22 -8 -28 -28 -28 -20 0 -26 6 -28 28 -3 27 12 57
28 57 4 0 13 -6 19 -14z m785 -2 c10 -25 7 -114 -4 -135 -6 -10 -21 -19 -33
-19 -40 0 -59 23 -64 77 -5 42 -2 54 16 72 25 25 76 28 85 5z m-1872 -64 c3
-17 0 -30 -6 -30 -6 0 -11 14 -11 30 0 17 3 30 6 30 4 0 9 -13 11 -30z m2058
-9 c0 -22 5 -42 13 -44 6 -3 -1 -6 -16 -6 -20 -1 -26 3 -21 11 4 7 8 22 9 34
0 15 -4 20 -15 16 -13 -5 -13 -3 -1 11 21 27 31 20 31 -22z m-1557 -72 c7 0
-1 -5 -18 -10 -22 -6 -31 -5 -38 6 -4 8 -16 15 -25 16 -10 0 -12 3 -4 6 15 6
16 50 0 55 -7 3 -6 7 5 11 14 5 17 1 17 -22 0 -39 9 -61 26 -61 10 0 14 13 14
41 0 35 -3 40 -17 35 -15 -5 -14 -3 2 9 19 15 20 14 23 -35 2 -30 8 -50 15
-51z m427 80 c0 -5 -5 -7 -10 -4 -12 7 -26 -22 -16 -33 4 -3 11 0 16 8 8 13
10 12 10 -2 0 -22 -28 -24 -36 -3 -4 8 -4 22 0 30 6 17 36 21 36 4z m1478 -29
c4 -23 -15 -43 -30 -34 -10 6 -11 48 -1 58 12 12 28 0 31 -24z m-2218 5 c18
-21 4 -65 -20 -65 -24 0 -38 44 -20 65 7 8 16 15 20 15 4 0 13 -7 20 -15z
m2079 -47 c1 -24 6 -44 12 -46 21 -8 7 -22 -21 -22 -16 0 -30 5 -30 10 0 6 5
10 10 10 6 0 10 18 10 41 0 28 -4 38 -12 33 -7 -4 -8 -3 -4 4 16 26 32 11 35
-30z m-1551 -9 c4 -43 -19 -69 -43 -49 -18 15 -20 61 -3 78 22 22 43 9 46 -29z
m362 -38 c0 -16 3 -36 6 -45 5 -12 0 -16 -22 -16 -21 0 -25 3 -15 9 15 10 22
61 8 61 -4 0 -5 5 -2 10 12 20 25 10 25 -19z m-158 -11 c3 -17 0 -30 -6 -30
-6 0 -11 14 -11 30 0 17 3 30 6 30 4 0 9 -13 11 -30z m1478 -5 c0 -8 -4 -15
-8 -15 -5 0 -9 7 -9 15 0 8 4 15 9 15 4 0 8 -7 8 -15z m-760 -41 c0 -42 -2
-45 -17 -33 -9 8 -19 13 -22 13 -3 -1 -4 3 -2 10 2 6 3 21 3 34 0 15 7 22 19
22 16 0 19 -8 19 -46z m-1184 6 c4 -16 10 -27 14 -25 14 9 40 -7 39 -24 0 -10
-2 -11 -6 -3 -2 6 -13 12 -24 12 -16 0 -19 -7 -19 -40 0 -33 3 -40 19 -40 12
0 23 11 29 28 6 15 11 21 11 14 2 -27 -20 -52 -44 -52 -21 0 -26 6 -31 40 -4
23 -12 40 -20 40 -16 0 -27 34 -19 60 10 32 44 25 51 -10z m1622 -6 c3 -34
-17 -58 -42 -48 -10 4 -16 18 -16 38 0 39 7 48 35 44 14 -2 21 -12 23 -34z
m-1251 -6 c-3 -7 -5 -2 -5 12 0 14 2 19 5 13 2 -7 2 -19 0 -25z m-629 -9 c2
-15 -4 -31 -13 -39 -24 -20 -50 9 -41 45 9 36 50 32 54 -6z m2202 21 c0 -5 -4
-10 -10 -10 -5 0 -10 5 -10 10 0 6 5 10 10 10 6 0 10 -4 10 -10z m-2398 -50
c3 -17 0 -30 -6 -30 -6 0 -11 14 -11 30 0 17 3 30 6 30 4 0 9 -13 11 -30z
m838 -50 c0 -57 3 -70 16 -70 8 0 12 -4 9 -10 -9 -15 -88 -13 -82 3 2 6 12 11
21 11 13 -2 16 8 16 47 0 37 -4 49 -15 49 -20 0 -19 10 3 26 29 22 32 17 32
-56z m-139 38 c1 -13 1 -29 0 -35 -1 -7 3 -13 9 -13 5 0 10 -4 10 -10 0 -5
-11 -10 -25 -10 -14 0 -25 5 -25 10 0 6 4 10 8 10 4 0 8 11 8 24 0 17 -4 22
-15 18 -14 -5 -14 -3 -2 11 19 23 31 21 32 -5z m221 -8 c3 -17 0 -30 -6 -30
-6 0 -11 14 -11 30 0 17 3 30 6 30 4 0 9 -13 11 -30z m668 -14 c0 -33 -13 -47
-37 -39 -7 3 -13 20 -13 39 0 30 3 34 25 34 22 0 25 -4 25 -34z m289 -23 c6
-27 7 -63 3 -83 -7 -31 -12 -35 -42 -38 -48 -3 -61 8 -67 60 -6 51 8 85 40 98
45 18 55 12 66 -37z m406 -12 c0 -30 -5 -47 -17 -54 -25 -16 -48 9 -48 53 0
44 6 52 40 48 22 -3 25 -7 25 -47z m-1196 25 c7 -8 11 -27 9 -43 -2 -22 -8
-28 -28 -28 -20 0 -26 6 -28 28 -3 27 12 57 28 57 4 0 13 -6 19 -14z m-649
-50 c0 -13 3 -31 6 -40 4 -10 1 -16 -8 -16 -10 0 -14 12 -13 40 0 22 3 40 8
40 4 0 7 -11 7 -24z m-432 -13 c-3 -30 -25 -42 -34 -19 -9 22 2 46 21 46 12 0
15 -8 13 -27z m2052 -12 c0 -22 5 -42 13 -44 6 -3 -1 -5 -18 -5 -16 0 -24 2
-17 5 6 2 12 18 12 34 0 23 -3 27 -17 22 -16 -6 -16 -5 -4 10 21 27 31 20 31
-22z m-1878 -6 c2 -22 0 -35 -8 -35 -7 0 -9 10 -6 26 3 16 -1 30 -9 35 -11 7
-11 9 2 9 12 0 18 -11 21 -35z m748 -5 c0 -19 -5 -30 -14 -30 -20 0 -29 16
-21 40 10 32 35 25 35 -10z m1475 -11 c0 -15 -7 -25 -17 -27 -13 -3 -18 3 -18
21 0 13 3 27 7 31 13 12 28 -1 28 -25z m-828 -43 c-3 -8 0 -19 6 -25 8 -8 6
-11 -8 -11 -17 0 -20 6 -18 37 2 51 2 51 14 30 6 -10 8 -24 6 -31z m-859 -7
c4 -43 -19 -69 -43 -49 -18 15 -20 61 -3 78 22 22 43 9 46 -29z m-716 -29 c3
-17 0 -30 -6 -30 -6 0 -11 14 -11 30 0 17 3 30 6 30 4 0 9 -13 11 -30z m488
-15 c0 -25 5 -45 10 -45 6 0 10 -3 10 -7 0 -5 -11 -8 -25 -8 -14 0 -25 3 -25
8 0 4 5 7 10 7 6 0 10 18 10 40 0 33 -3 38 -17 33 -11 -4 -14 -3 -9 5 4 7 14
12 22 12 10 0 14 -12 14 -45z m590 6 c0 -16 3 -36 6 -45 5 -12 0 -16 -22 -16
-24 1 -27 3 -14 13 17 13 23 57 8 57 -5 0 -6 5 -3 10 12 20 25 10 25 -19z
m-630 4 c18 -21 4 -65 -20 -65 -24 0 -38 44 -20 65 7 8 16 15 20 15 4 0 13 -7
20 -15z m-255 -25 c15 -46 -18 -78 -45 -45 -10 12 -10 21 -2 40 14 30 38 33
47 5z m2090 -29 c0 -30 -5 -47 -17 -54 -25 -16 -48 9 -48 53 0 44 6 52 40 48
22 -3 25 -7 25 -47z m115 17 c0 -17 -3 -28 -7 -25 -9 10 -10 57 -1 57 4 0 8
-14 8 -32z m-1060 -42 c0 -53 3 -65 18 -69 9 -3 -3 -5 -28 -5 -25 0 -37 2 -27
5 23 6 22 39 -3 46 -26 7 -28 61 -2 76 36 21 42 13 42 -53z m-466 -5 c15 -51
-3 -94 -44 -107 -44 -15 -50 -7 -50 68 0 47 4 60 21 72 30 20 62 6 73 -33z
m-554 -131 l5 -165 29 -2 c16 -1 34 -7 40 -13 7 -7 -23 -10 -98 -10 -78 0
-107 3 -104 12 2 6 22 12 44 12 l39 1 3 134 c3 135 -4 165 -30 144 -7 -6 -24
-14 -37 -18 -38 -12 -21 16 30 47 73 45 73 45 79 -142z m1272 138 c9 -26 -8
-63 -27 -63 -21 0 -32 33 -21 61 7 17 42 19 48 2z m-1584 -25 c-3 -30 -25 -42
-34 -19 -9 22 2 46 21 46 12 0 15 -8 13 -27z m692 -26 c0 -18 5 -38 12 -45 9
-9 6 -12 -15 -12 -15 0 -27 5 -27 10 0 6 4 10 9 10 5 0 9 11 9 25 0 13 -4 22
-9 19 -10 -6 -12 10 -2 19 14 15 23 5 23 -26z m228 6 c-3 -30 -25 -42 -34 -19
-9 22 2 46 21 46 12 0 15 -8 13 -27z m944 -7 c4 -6 8 -34 8 -63 0 -57 -17 -83
-54 -83 -32 0 -48 22 -53 74 -5 38 -2 48 21 71 27 27 61 27 78 1z m528 -4 c0
-15 -2 -15 -10 -2 -13 20 -13 33 0 25 6 -3 10 -14 10 -23z m-1958 -42 c3 -35
1 -40 -17 -39 -11 0 -14 3 -7 6 15 6 16 53 1 53 -5 0 -7 5 -4 10 13 20 23 9
27 -30z m-244 -11 c2 -15 -4 -31 -13 -39 -24 -20 -50 9 -41 45 9 36 50 32 54
-6z m-190 -26 c-3 -30 -25 -42 -34 -19 -9 22 2 46 21 46 12 0 15 -8 13 -27z
m922 -4 c0 -5 -4 -8 -9 -4 -13 7 -24 -12 -15 -26 4 -8 9 -7 16 2 8 12 9 11 6
0 -3 -8 -9 -16 -15 -18 -13 -5 -27 32 -18 47 8 13 35 13 35 -1z m660 -34 c0
-33 -13 -46 -37 -37 -16 5 -17 54 -2 69 19 19 39 3 39 -32z m680 -5 c0 -22 -4
-40 -10 -40 -5 0 -10 18 -10 40 0 22 5 40 10 40 6 0 10 -18 10 -40z m138 7 c3
-22 -1 -27 -17 -27 -15 0 -21 6 -21 23 0 46 33 49 38 4z m-1693 -52 c0 -36 -3
-40 -25 -40 -20 0 -26 6 -28 28 -4 33 14 59 37 55 11 -2 16 -15 16 -43z m-257
-24 c-5 -43 -57 -38 -58 6 0 6 7 19 16 28 22 21 46 1 42 -34z m341 42 c-4 -23
4 -33 35 -43 69 -23 58 -156 -12 -148 -37 4 -54 42 -46 98 3 25 7 56 9 70 3
29 3 30 10 30 3 0 4 -3 4 -7z m-797 -43 c3 -17 0 -30 -6 -30 -6 0 -11 14 -11
30 0 17 3 30 6 30 4 0 9 -13 11 -30z m1362 14 c10 -27 7 -99 -6 -112 -20 -20
-56 -14 -74 13 -17 27 -14 76 7 102 16 18 65 17 73 -3z m-284 -23 c0 -16 3
-36 6 -45 4 -12 0 -16 -15 -16 -12 0 -21 5 -21 10 0 6 5 10 11 10 13 0 1 43
-13 49 -6 2 -4 7 3 12 23 14 29 10 29 -20z m1200 19 c11 -7 6 -10 -20 -10 -26
0 -31 3 -20 10 8 5 17 10 20 10 3 0 12 -5 20 -10z m-1358 -30 c3 -17 0 -30 -6
-30 -6 0 -11 14 -11 30 0 17 3 30 6 30 4 0 9 -13 11 -30z m1483 -11 c0 -15 -7
-25 -17 -27 -13 -3 -18 3 -18 21 0 13 3 27 7 31 13 12 28 -1 28 -25z m-1902
-131 c7 -4 -1 -7 -18 -7 -16 0 -24 3 -17 6 7 3 13 26 14 56 l2 52 3 -50 c3
-27 10 -53 16 -57z m-501 52 c3 -17 0 -30 -6 -30 -6 0 -11 14 -11 30 0 17 3
30 6 30 4 0 9 -13 11 -30z m440 -30 c3 -35 1 -40 -17 -39 -11 0 -14 3 -7 6 15
6 16 53 1 53 -5 0 -7 5 -4 10 13 20 23 9 27 -30z m258 7 c0 -18 5 -38 12 -45
9 -9 6 -12 -15 -12 -15 0 -27 5 -27 10 0 6 5 10 10 10 6 0 10 12 10 26 0 14
-4 23 -10 19 -11 -7 -14 8 -3 18 14 15 23 5 23 -26z m228 6 c-3 -30 -25 -42
-34 -19 -9 22 2 46 21 46 12 0 15 -8 13 -27z m918 -8 c3 -19 3 -51 0 -71 -6
-30 -4 -36 13 -41 28 -7 16 -23 -17 -23 -37 0 -60 15 -34 22 16 5 20 13 18 44
-5 73 -5 74 -23 67 -16 -6 -16 -4 1 15 26 30 34 28 42 -13z m418 -14 c-1 -39
2 -51 15 -54 9 -3 0 -5 -19 -5 -19 0 -29 2 -22 5 7 2 12 22 12 44 0 24 -5 39
-12 39 -9 0 -8 4 2 10 25 16 27 12 24 -39z m-2068 3 c9 -35 -18 -63 -40 -44
-19 15 -21 41 -4 58 19 19 37 14 44 -14z m897 -16 c6 -8 7 -27 3 -42 -5 -21
-12 -27 -29 -24 -17 2 -23 11 -25 37 -5 48 28 66 51 29z m-1085 -59 c-4 -28
-31 -32 -36 -6 -5 23 18 51 30 39 6 -6 8 -20 6 -33z m2067 -14 c0 -36 -2 -40
-25 -40 -20 0 -26 6 -28 28 -5 42 5 59 30 55 20 -3 23 -9 23 -43z m-1153 -5
c3 -17 0 -30 -6 -30 -6 0 -11 14 -11 30 0 17 3 30 6 30 4 0 9 -13 11 -30z
m1478 -7 c0 -10 -4 -14 -8 -8 -4 6 -11 13 -16 18 -5 4 -2 7 7 7 10 0 17 -8 17
-17z m-1947 -17 c4 -9 14 -12 25 -9 11 2 22 1 25 -4 3 -5 -4 -9 -16 -9 -18 1
-23 -5 -25 -33 -4 -41 11 -60 33 -41 9 7 15 8 15 2 0 -6 -10 -14 -22 -18 -15
-4 -25 -1 -35 12 -7 11 -22 30 -33 42 -22 26 -23 32 -14 56 8 20 40 21 47 2z
m887 -50 c0 -53 3 -65 18 -69 9 -3 -3 -5 -28 -5 -25 0 -37 2 -27 5 9 2 17 14
18 26 0 12 2 37 5 56 4 30 2 33 -18 28 -22 -6 -22 -6 -4 8 32 24 36 18 36 -49z
m-625 9 c0 -36 -3 -40 -25 -40 -20 0 -26 6 -28 28 -4 33 14 59 37 55 11 -2 16
-15 16 -43z m126 13 c0 -7 0 -34 -1 -61 -1 -35 3 -49 14 -53 31 -12 16 -24
-29 -24 -34 0 -43 3 -39 14 3 8 11 13 18 10 9 -3 13 11 15 47 1 33 -2 49 -8
44 -21 -12 -33 6 -14 21 23 17 43 18 44 2z m-833 -39 c-1 -13 -10 -24 -18 -24
-19 0 -26 45 -8 56 18 11 30 -4 26 -32z m509 -1 c-3 -8 -6 -5 -6 6 -1 11 2 17
5 13 3 -3 4 -12 1 -19z m1762 8 c17 -20 10 -77 -10 -89 -29 -18 -49 -1 -49 41
0 55 32 81 59 48z m-1357 -26 c3 -17 0 -30 -6 -30 -6 0 -11 14 -11 30 0 17 3
30 6 30 4 0 9 -13 11 -30z m668 -2 c0 -17 3 -18 15 -8 24 20 17 4 -11 -27 -23
-25 -25 -32 -19 -88 4 -33 11 -61 16 -63 5 -2 2 -10 -6 -19 -19 -19 -19 -42 1
-81 11 -23 22 -32 40 -32 28 0 33 -26 7 -32 -36 -8 -186 7 -190 19 -3 8 11 13
39 15 l43 3 3 120 c1 66 0 130 -3 142 -5 21 -6 21 -41 7 -20 -8 -39 -13 -42
-10 -7 8 -5 9 61 50 61 36 87 38 87 4z m810 -14 c0 -35 -15 -30 -16 6 -1 16 3
27 7 24 5 -3 9 -16 9 -30z m-338 -35 c4 -36 2 -46 -8 -45 -18 3 -31 16 -16 16
18 0 10 50 -8 50 -12 1 -11 4 4 15 11 8 20 14 21 12 1 -1 5 -23 7 -48z m-1612
-3 c18 -23 8 -61 -17 -64 -26 -4 -39 28 -23 58 13 24 23 25 40 6z m-261 -69
c0 6 22 21 47 34 42 20 50 21 82 9 47 -17 59 -29 73 -77 11 -33 17 -39 35 -35
16 3 24 -2 29 -17 3 -12 11 -21 16 -21 14 0 11 78 -3 82 -7 3 -6 7 5 11 15 5
17 -1 17 -42 0 -30 5 -51 13 -54 6 -3 0 -6 -15 -6 -15 -1 -31 -8 -36 -17 -6
-11 -17 -15 -31 -11 -22 5 -24 1 -21 -44 2 -34 -30 -91 -61 -106 -27 -14 -84
-16 -114 -3 -14 5 -26 2 -38 -9 -17 -15 -20 -14 -33 4 -19 25 -18 41 4 63 18
18 18 20 0 68 -18 45 -18 51 -4 82 19 39 21 72 4 73 -10 0 -10 2 0 6 6 2 12
16 12 29 0 13 -6 24 -12 24 -9 0 -8 4 2 10 12 8 16 2 21 -28 3 -20 7 -32 8
-25z m1679 41 c15 -15 16 -102 2 -129 -13 -23 -62 -26 -81 -3 -17 21 -18 107
0 127 16 20 62 22 79 5z m-1150 -41 c2 -27 -1 -39 -13 -43 -22 -9 -45 14 -45
46 0 33 8 42 35 38 15 -2 21 -12 23 -41z m210 16 c-3 -30 -25 -42 -34 -19 -9
22 2 46 21 46 12 0 15 -8 13 -27z m1477 -14 c0 -15 -7 -25 -17 -27 -13 -3 -18
3 -18 21 0 13 3 27 7 31 13 12 28 -1 28 -25z m-1312 -20 c5 -9 7 -28 3 -43 -5
-21 -12 -27 -29 -24 -23 3 -35 43 -23 75 7 18 35 14 49 -8z m985 -52 c2 -10 1
-30 -2 -43 -10 -37 -50 -29 -54 9 -2 16 -1 35 2 44 8 20 50 12 54 -10z m-718
-2 c16 -19 15 -92 -1 -111 -15 -18 -53 -18 -68 0 -20 24 -16 97 5 113 24 17
49 16 64 -2z m-432 -22 c-4 -33 -24 -41 -33 -14 -8 25 1 41 21 41 11 0 14 -8
12 -27z m1477 -14 c0 -15 -7 -25 -17 -27 -13 -3 -18 3 -18 21 0 13 3 27 7 31
13 12 28 -1 28 -25z m-1552 9 c26 -20 32 -89 10 -116 -16 -20 -84 -39 -81 -23
1 3 -2 27 -6 54 -13 75 29 120 77 85z m-138 -63 c0 -36 -3 -40 -25 -40 -20 0
-26 6 -28 28 -4 33 14 59 37 55 11 -2 16 -15 16 -43z m-705 -19 c0 -27 -28
-43 -36 -21 -9 21 3 45 21 45 9 0 15 -9 15 -24z m912 -26 c3 -17 0 -30 -6 -30
-6 0 -11 14 -11 30 0 17 3 30 6 30 4 0 9 -13 11 -30z m1478 -8 c0 -15 -2 -15
-10 -2 -13 20 -13 33 0 25 6 -3 10 -14 10 -23z m-327 -74 c7 -4 -1 -7 -18 -7
-16 0 -24 3 -17 6 6 2 12 18 12 34 0 23 -3 27 -17 22 -15 -5 -14 -3 2 10 19
15 20 14 23 -21 2 -20 9 -40 15 -44z m-1633 50 l0 -22 16 22 c8 12 20 22 26
22 7 0 4 -6 -6 -13 -12 -9 -17 -23 -14 -47 2 -29 7 -35 25 -34 12 0 20 -3 17
-8 -9 -14 -44 -9 -50 7 -4 8 -12 15 -19 15 -10 0 -12 10 -8 37 5 28 3 34 -7
28 -9 -5 -11 -4 -6 3 12 19 26 14 26 -10z m77 -40 c-3 -8 -6 -5 -6 6 -1 11 2
17 5 13 3 -3 4 -12 1 -19z m1327 -55 c-6 -60 -5 -65 15 -70 37 -9 23 -23 -24
-23 -46 0 -61 14 -25 23 16 4 20 13 20 44 0 43 -13 69 -29 59 -21 -13 -11 13
11 28 33 23 40 10 32 -61z m435 63 c17 -20 10 -77 -10 -89 -9 -6 -24 -7 -33
-4 -23 9 -22 82 2 96 23 14 28 13 41 -3z m-2277 -26 c3 -17 0 -30 -6 -30 -6 0
-11 14 -11 30 0 17 3 30 6 30 4 0 9 -13 11 -30z m698 -25 c0 -19 5 -35 10 -35
6 0 10 -4 10 -10 0 -5 -11 -10 -25 -10 -14 0 -25 5 -25 10 0 6 5 10 10 10 6 0
10 11 10 25 0 14 -5 25 -11 25 -5 0 -7 5 -4 10 13 21 25 9 25 -25z m222 5 c3
-17 0 -30 -6 -30 -6 0 -11 14 -11 30 0 17 3 30 6 30 4 0 9 -13 11 -30z m649
16 c0 -3 4 -19 9 -35 6 -24 5 -30 -9 -34 -14 -3 -17 2 -15 37 2 23 3 43 3 45
1 6 13 -6 12 -13z m-489 -71 c3 -38 0 -45 -15 -45 -12 0 -16 4 -10 13 13 20
15 57 3 57 -6 0 -8 5 -5 10 13 21 23 8 27 -35z m258 -30 c0 -36 0 -68 0 -72 0
-5 -11 -9 -25 -11 -14 -2 -25 1 -25 6 0 5 8 9 18 8 14 -1 17 8 17 54 0 49 -2
55 -20 52 l-20 -4 20 16 c11 8 23 16 28 16 4 0 7 -29 7 -65z m-1331 12 c0 -9
-2 -8 -6 1 -6 16 -23 6 -23 -15 0 -9 6 -13 15 -9 8 3 15 2 15 -3 0 -13 -11
-20 -26 -14 -17 6 -19 50 -1 56 16 6 27 -1 26 -16z m173 -27 c3 -35 1 -40 -17
-39 -11 0 -14 3 -7 6 6 2 12 16 12 29 0 13 -6 24 -12 24 -9 0 -8 4 2 10 8 5
16 10 16 10 1 0 4 -18 6 -40z m672 34 c12 -5 16 -20 16 -58 0 -56 -12 -76 -45
-76 -36 0 -48 16 -48 64 0 65 27 89 77 70z m1206 -27 c0 -18 5 -38 12 -45 9
-9 6 -12 -15 -12 -15 0 -27 5 -27 10 0 6 4 10 9 10 5 0 8 11 7 25 0 14 -5 25
-9 25 -5 0 -5 5 -2 10 13 20 25 9 25 -23z m-1130 3 c0 -5 -7 -7 -15 -4 -8 4
-15 8 -15 10 0 2 7 4 15 4 8 0 15 -4 15 -10z m1475 -31 c0 -15 -7 -25 -17 -27
-13 -3 -18 3 -18 21 0 13 3 27 7 31 13 12 28 -1 28 -25z m-1484 2 c6 9 9 10 9
2 0 -19 -21 -27 -31 -12 -5 8 -9 19 -9 24 1 6 5 2 11 -9 9 -15 13 -16 20 -5z
m-427 3 c9 -3 16 -11 16 -16 0 -6 -7 -4 -16 3 -14 11 -18 10 -30 -6 -8 -10
-14 -14 -14 -9 0 9 20 34 26 34 1 0 9 -3 18 -6z m1091 -44 c0 -28 -4 -35 -20
-35 -13 0 -21 8 -23 23 -5 34 5 54 25 50 13 -2 18 -13 18 -38z m-870 -15 c0
-36 -3 -40 -25 -40 -21 0 -26 5 -28 34 -4 35 11 53 38 48 10 -1 15 -15 15 -42z
m1571 -11 c3 -13 3 -36 0 -50 -5 -20 -12 -25 -34 -22 -24 3 -27 7 -29 43 l-1
40 6 -35 c5 -26 12 -35 27 -35 14 0 21 8 23 28 4 34 -13 58 -36 50 -14 -4 -14
-3 -3 5 20 14 40 4 47 -24z m-1798 -18 c11 0 19 -3 16 -8 -3 -4 -14 -8 -25 -8
-10 0 -19 -6 -19 -14 0 -7 -7 -19 -15 -26 -12 -10 -18 -10 -30 0 -22 18 -18
40 13 71 27 27 27 27 33 6 3 -14 13 -22 27 -21z m-488 4 c0 -16 -4 -30 -9 -30
-4 0 -8 13 -7 30 1 39 16 39 16 0z m930 0 c0 -5 -7 -7 -15 -4 -9 4 -15 0 -15
-9 0 -19 16 -31 23 -17 3 6 4 5 3 -2 -1 -6 -7 -13 -13 -15 -13 -5 -27 32 -18
47 8 13 35 13 35 0z m1470 -28 c0 -15 -2 -15 -10 -2 -13 20 -13 33 0 25 6 -3
10 -14 10 -23z m-778 -43 c22 -25 32 -113 25 -208 -6 -76 -30 -157 -39 -130
-3 10 -8 7 -17 -9 -13 -25 -39 -29 -47 -7 -4 8 -14 15 -23 15 -33 0 -71 25
-86 57 -35 73 -28 212 13 262 38 48 139 59 174 20z m775 15 c-3 -3 -12 -4 -19
-1 -8 3 -5 6 6 6 11 1 17 -2 13 -5z m-527 -23 c18 -34 12 -116 -9 -135 -21
-19 -51 -15 -71 9 -25 30 -16 117 14 137 21 14 55 8 66 -11z m-1870 -25 c0
-14 -4 -27 -9 -30 -4 -3 -8 8 -7 24 1 36 16 41 16 6z m700 -31 c0 -19 5 -35
10 -35 6 0 10 -4 10 -10 0 -5 -11 -10 -25 -10 -14 0 -25 5 -25 10 0 6 5 10 10
10 6 0 10 11 10 25 0 14 -5 25 -11 25 -5 0 -7 5 -4 10 13 21 25 9 25 -25z
m222 5 c3 -17 0 -30 -6 -30 -6 0 -11 14 -11 30 0 17 3 30 6 30 4 0 9 -13 11
-30z m429 20 c25 -14 27 -101 2 -121 -15 -13 -15 -12 -5 8 18 33 14 81 -8 103
-22 22 -19 25 11 10z m-52 -27 c-13 -35 -3 -90 19 -102 9 -6 12 -11 5 -11 -40
-1 -62 90 -31 128 16 19 18 14 7 -15z m1106 -4 c0 -15 -7 -25 -17 -27 -13 -3
-18 3 -18 21 0 13 3 27 7 31 13 12 28 -1 28 -25z m-1902 -81 c7 -4 -1 -7 -18
-7 -16 0 -24 3 -17 6 7 2 12 22 12 44 0 24 -5 39 -12 39 -9 0 -8 4 2 10 12 8
16 1 18 -38 2 -25 9 -50 15 -54z m-151 63 c31 -25 48 -81 48 -163 0 -93 -20
-135 -76 -159 -43 -19 -46 -20 -84 -3 -49 22 -67 58 -73 144 -6 91 17 161 63
185 36 20 93 18 122 -4z m1913 -31 c-2 -31 -15 -37 -15 -7 0 15 4 27 8 27 5 0
8 -9 7 -20z m-2255 -26 c0 -17 -5 -24 -20 -24 -14 0 -20 7 -20 24 0 23 17 38
33 29 4 -2 7 -15 7 -29z m2068 -10 c3 -34 -18 -60 -43 -50 -9 3 -15 18 -15 39
0 40 7 49 35 45 14 -2 21 -12 23 -34z m-1148 -8 c0 -31 -14 -40 -30 -21 -15
18 -6 45 15 45 9 0 15 -9 15 -24z m1470 -16 c0 -39 -15 -39 -16 0 -1 17 3 30
7 30 5 0 9 -13 9 -30z m-1685 -55 c0 -36 -3 -40 -25 -40 -27 0 -36 20 -26 61
5 19 12 25 29 22 18 -3 22 -9 22 -43z m1565 36 c0 -5 -9 -7 -20 -4 -11 3 -20
7 -20 9 0 2 9 4 20 4 11 0 20 -4 20 -9z m-2270 -57 c0 -19 -5 -25 -17 -22 -22
4 -30 38 -12 49 19 11 29 2 29 -27z m912 -24 c3 -17 0 -30 -6 -30 -6 0 -11 14
-11 30 0 17 3 30 6 30 4 0 9 -13 11 -30z m1483 -11 c0 -15 -7 -25 -17 -27 -13
-3 -18 3 -18 21 0 13 3 27 7 31 13 12 28 -1 28 -25z m-1915 -23 c0 -26 5 -46
13 -49 7 -3 5 -6 -5 -6 -15 -1 -18 8 -18 45 0 38 -3 45 -16 40 -8 -3 -12 -2
-9 4 3 6 13 10 21 10 10 0 14 -12 14 -44z m1586 10 c10 -41 1 -61 -26 -61 -21
0 -26 5 -28 34 -5 50 42 74 54 27z m208 -22 c3 -9 5 -28 5 -42 -1 -23 -3 -21
-8 8 -4 26 -11 35 -26 35 -17 0 -20 -7 -20 -42 0 -22 -3 -39 -7 -36 -10 5 -10
55 -2 77 8 21 50 21 58 0z m-944 -58 c0 -53 3 -65 18 -69 9 -3 -3 -5 -28 -4
-25 0 -35 2 -24 4 19 4 22 11 23 64 1 58 0 60 -21 54 -18 -5 -20 -4 -8 4 32
23 40 13 40 -53z m-622 -12 c4 -38 -20 -63 -43 -44 -15 13 -21 61 -8 74 4 4
16 6 28 4 14 -2 21 -12 23 -34z m212 26 c0 -5 -7 -7 -15 -4 -17 7 -21 -21 -5
-31 6 -3 10 -1 10 6 0 7 3 10 6 6 11 -10 -6 -26 -21 -20 -15 5 -20 34 -8 46
10 10 33 8 33 -3z m1350 -34 c0 -2 -7 -7 -16 -10 -8 -3 -12 -2 -9 4 6 10 25
14 25 6z"/>
<path d="M777 2555 c-8 -20 3 -47 17 -42 6 2 11 14 11 27 0 27 -20 38 -28 15z"/>
<path d="M1394 2536 c-8 -21 3 -49 16 -41 5 3 10 15 10 25 0 25 -18 36 -26 16z"/>
<path d="M564 2496 c-9 -25 0 -61 16 -61 10 0 16 12 18 38 2 28 0 37 -13 37
-8 0 -18 -6 -21 -14z"/>
<path d="M2480 2485 c0 -8 5 -15 10 -15 6 0 10 7 10 15 0 8 -4 15 -10 15 -5 0
-10 -7 -10 -15z"/>
<path d="M2134 2466 c-8 -22 3 -49 18 -44 17 6 17 50 1 55 -7 3 -16 -2 -19
-11z"/>
<path d="M2334 2456 c-11 -28 0 -61 21 -61 16 0 20 7 20 35 0 25 -5 36 -18 38
-9 2 -20 -3 -23 -12z"/>
<path d="M80 2416 c0 -8 5 -18 10 -21 6 -3 10 3 10 14 0 12 -4 21 -10 21 -5 0
-10 -6 -10 -14z"/>
<path d="M787 2403 c-10 -9 -9 -53 2 -53 12 0 20 35 12 49 -4 6 -10 8 -14 4z"/>
<path d="M1004 2399 c-3 -6 -1 -16 5 -22 8 -8 11 -5 11 11 0 24 -5 28 -16 11z"/>
<path d="M1419 2390 c-1 -5 -2 -16 -3 -22 -1 -7 2 -19 7 -25 7 -9 5 -13 -7
-13 -20 0 -21 -33 -2 -49 33 -27 61 52 36 100 -11 20 -29 26 -31 9z"/>
<path d="M1396 2253 c-12 -13 -6 -53 9 -53 9 0 15 9 15 24 0 26 -12 40 -24 29z"/>
<path d="M2480 2375 c0 -8 5 -15 10 -15 6 0 10 7 10 15 0 8 -4 15 -10 15 -5 0
-10 -7 -10 -15z"/>
<path d="M1154 2345 c-7 -18 2 -45 15 -45 10 0 22 40 15 52 -8 13 -24 9 -30
-7z"/>
<path d="M1902 2348 c-15 -15 -16 -72 -2 -99 23 -42 60 -10 60 53 0 34 -14 58
-35 58 -6 0 -16 -5 -23 -12z"/>
<path d="M2480 2265 c0 -8 5 -15 10 -15 6 0 10 7 10 15 0 8 -4 15 -10 15 -5 0
-10 -7 -10 -15z"/>
<path d="M260 2250 c0 -21 4 -30 13 -27 16 5 16 49 -1 55 -8 2 -12 -7 -12 -28z"/>
<path d="M780 2210 c0 -21 4 -30 12 -28 7 3 12 15 12 28 0 13 -5 25 -12 28 -8
2 -12 -7 -12 -28z"/>
<path d="M520 2121 c0 -17 5 -31 10 -31 6 0 10 9 10 20 0 11 0 23 1 27 0 4 -4
9 -10 11 -6 2 -11 -10 -11 -27z"/>
<path d="M2134 2135 c-8 -20 3 -48 17 -43 6 2 10 7 10 11 -1 4 -1 16 -1 27 0
23 -18 27 -26 5z"/>
<path d="M260 2100 c0 -16 4 -30 9 -30 13 0 21 27 15 45 -10 25 -24 17 -24
-15z"/>
<path d="M1652 2046 c2 -15 8 -26 13 -26 15 0 12 43 -3 48 -10 3 -13 -4 -10
-22z"/>
<path d="M1896 2025 c-8 -21 -8 -69 0 -89 8 -20 38 -21 53 -2 7 8 11 34 9 58
-3 38 -6 43 -29 46 -17 2 -29 -3 -33 -13z"/>
<path d="M2337 2043 c-11 -11 -8 -58 5 -71 24 -24 48 21 32 62 -6 16 -26 21
-37 9z"/>
<path d="M1154 2015 c-7 -18 2 -45 15 -45 12 0 24 37 16 50 -9 15 -25 12 -31
-5z"/>
<path d="M80 1976 c0 -8 5 -18 10 -21 6 -3 10 3 10 14 0 12 -4 21 -10 21 -5 0
-10 -6 -10 -14z"/>
<path d="M1004 1959 c-3 -6 -1 -16 5 -22 8 -8 11 -5 11 11 0 24 -5 28 -16 11z"/>
<path d="M2480 1941 c0 -12 5 -21 10 -21 6 0 10 6 10 14 0 8 -4 18 -10 21 -5
3 -10 -3 -10 -14z"/>
<path d="M780 1879 c0 -17 5 -29 11 -27 6 2 10 7 10 11 -1 4 -1 16 -1 27 0 11
-4 20 -10 20 -5 0 -10 -14 -10 -31z"/>
<path d="M520 1830 c0 -16 5 -30 10 -30 6 0 10 14 10 30 0 17 -4 30 -10 30 -5
0 -10 -13 -10 -30z"/>
<path d="M260 1810 c0 -30 13 -40 25 -20 8 13 -4 50 -16 50 -5 0 -9 -13 -9
-30z"/>
<path d="M2337 1833 c-10 -9 -8 -56 2 -72 8 -12 12 -12 25 -2 17 14 20 38 10
65 -6 16 -26 21 -37 9z"/>
<path d="M1394 1806 c-7 -20 2 -46 16 -46 13 0 13 47 0 55 -6 3 -13 -1 -16 -9z"/>
<path d="M907 1784 c-14 -14 -7 -81 9 -95 14 -11 18 -11 29 4 26 35 -9 120
-38 91z"/>
<path d="M1654 1766 c-8 -21 3 -49 16 -41 5 3 10 15 10 25 0 25 -18 36 -26 16z"/>
<path d="M80 1756 c0 -8 5 -18 10 -21 6 -3 10 3 10 14 0 12 -4 21 -10 21 -5 0
-10 -6 -10 -14z"/>
<path d="M1004 1739 c-3 -6 -1 -16 5 -22 8 -8 11 -5 11 11 0 24 -5 28 -16 11z"/>
<path d="M1900 1711 c-11 -22 -13 -71 -4 -95 3 -9 16 -16 29 -16 27 0 35 17
35 75 0 30 -5 45 -16 49 -25 10 -33 7 -44 -13z"/>
<path d="M260 1660 c0 -16 4 -30 9 -30 12 0 24 37 16 50 -12 20 -25 10 -25
-20z"/>
<path d="M80 1646 c0 -8 5 -18 10 -21 6 -3 10 3 10 14 0 12 -4 21 -10 21 -5 0
-10 -6 -10 -14z"/>
<path d="M1654 1615 c-8 -20 3 -48 16 -40 13 8 13 55 0 55 -6 0 -13 -7 -16
-15z"/>
<path d="M2480 1611 c0 -12 5 -21 10 -21 6 0 10 6 10 14 0 8 -4 18 -10 21 -5
3 -10 -3 -10 -14z"/>
<path d="M777 1562 c-6 -24 7 -47 21 -39 13 9 10 49 -4 54 -6 2 -14 -5 -17
-15z"/>
<path d="M520 1535 c0 -14 5 -25 10 -25 6 0 10 11 10 25 0 14 -4 25 -10 25 -5
0 -10 -11 -10 -25z"/>
<path d="M913 1503 c-15 -5 -17 -71 -4 -92 24 -37 57 29 39 78 -7 21 -13 23
-35 14z"/>
<path d="M1406 1534 c-10 -26 -7 -64 5 -64 7 0 10 12 7 30 -3 17 -1 30 4 30
16 0 8 -63 -9 -76 -17 -12 -17 -13 1 -20 24 -9 46 19 46 57 0 40 -10 59 -30
59 -10 0 -21 -7 -24 -16z"/>
<path d="M2480 1501 c0 -12 5 -21 10 -21 6 0 10 6 10 14 0 8 -4 18 -10 21 -5
3 -10 -3 -10 -14z"/>
<path d="M1004 1409 c-3 -6 -1 -16 5 -22 8 -8 11 -5 11 11 0 24 -5 28 -16 11z"/>
<path d="M260 1370 c0 -16 4 -30 9 -30 12 0 24 37 16 50 -12 20 -25 10 -25
-20z"/>
<path d="M1152 1343 c3 -30 23 -41 31 -18 9 21 -2 45 -20 45 -10 0 -13 -9 -11
-27z"/>
<path d="M80 1316 c0 -8 5 -18 10 -21 6 -3 10 3 10 14 0 12 -4 21 -10 21 -5 0
-10 -6 -10 -14z"/>
<path d="M2135 1319 c-4 -5 -4 -22 -1 -35 5 -20 10 -23 20 -14 8 6 13 19 11
28 -2 9 -4 20 -4 25 -1 11 -19 9 -26 -4z"/>
<path d="M520 1240 c0 -16 4 -30 9 -30 10 0 22 40 15 52 -11 18 -24 6 -24 -22z"/>
<path d="M777 1235 c-8 -20 3 -47 17 -42 6 2 11 14 11 27 0 27 -20 38 -28 15z"/>
<path d="M80 1206 c0 -8 5 -18 10 -21 6 -3 10 3 10 14 0 12 -4 21 -10 21 -5 0
-10 -6 -10 -14z"/>
<path d="M2334 1186 c-8 -35 -1 -60 18 -64 20 -4 32 30 24 64 -8 31 -34 31
-42 0z"/>
<path d="M1666 1177 c3 -10 9 -15 12 -12 3 3 0 11 -7 18 -10 9 -11 8 -5 -6z"/>
<path d="M1660 891 c0 -6 4 -13 10 -16 6 -3 7 1 4 9 -7 18 -14 21 -14 7z"/>
<path d="M527 1123 c-11 -10 -8 -53 3 -53 6 0 10 14 10 30 0 31 -2 35 -13 23z"/>
<path d="M331 1054 c-23 -29 -23 -32 -23 -148 0 -92 22 -136 70 -136 65 0 97
63 90 178 -5 89 -28 126 -80 130 -29 2 -40 -2 -57 -24z"/>
<path d="M520 950 c0 -16 4 -30 9 -30 12 0 19 21 13 43 -7 28 -22 20 -22 -13z"/>
<path d="M260 785 c0 -14 5 -25 10 -25 6 0 10 11 10 25 0 14 -4 25 -10 25 -5
0 -10 -11 -10 -25z"/>
<path d="M1897 1083 c-4 -3 -7 -28 -7 -53 0 -56 18 -77 49 -60 21 11 24 19 22
55 -4 50 -12 65 -35 65 -12 0 -26 -3 -29 -7z"/>
<path d="M780 1060 c0 -21 4 -30 13 -27 6 2 12 14 12 27 0 13 -6 25 -12 28 -9
2 -13 -7 -13 -28z"/>
<path d="M1004 1079 c-3 -6 -1 -16 5 -22 8 -8 11 -5 11 11 0 24 -5 28 -16 11z"/>
<path d="M2480 1060 c0 -11 5 -20 10 -20 6 0 10 9 10 20 0 11 -4 20 -10 20 -5
0 -10 -9 -10 -20z"/>
<path d="M1150 1016 c0 -29 19 -44 31 -25 13 20 6 43 -14 47 -12 3 -17 -3 -17
-22z"/>
<path d="M2136 984 c-11 -29 -7 -46 12 -42 15 3 18 12 13 48 -2 16 -18 12 -25
-6z"/>
<path d="M1400 964 c-18 -47 -3 -94 30 -94 21 0 30 19 30 64 0 56 -43 77 -60
30z"/>
<path d="M1000 966 c0 -8 5 -18 10 -21 6 -3 10 3 10 14 0 12 -4 21 -10 21 -5
0 -10 -6 -10 -14z"/>
<path d="M2480 951 c0 -12 5 -21 10 -21 6 0 10 6 10 14 0 8 -4 18 -10 21 -5 3
-10 -3 -10 -14z"/>
<path d="M906 934 c-9 -23 -7 -67 3 -83 24 -38 63 39 41 80 -13 23 -36 25 -44
3z"/>
<path d="M780 890 c0 -21 4 -30 13 -27 6 2 12 14 12 27 0 13 -6 25 -12 28 -9
2 -13 -7 -13 -28z"/>
<path d="M80 875 c0 -8 5 -15 10 -15 6 0 10 7 10 15 0 8 -4 15 -10 15 -5 0
-10 -7 -10 -15z"/>
<path d="M2341 776 c-19 -23 -10 -71 14 -71 22 0 30 24 21 61 -7 27 -18 30
-35 10z"/>
<path d="M907 663 c-14 -13 -7 -91 9 -104 30 -25 53 30 38 89 -6 21 -33 30
-47 15z"/>
<path d="M2480 620 c0 -11 5 -20 10 -20 6 0 10 9 10 20 0 11 -4 20 -10 20 -5
0 -10 -9 -10 -20z"/>
<path d="M1654 596 c-8 -21 3 -49 16 -41 5 3 10 15 10 25 0 25 -18 36 -26 16z"/>
<path d="M778 578 c-7 -20 3 -49 16 -45 15 5 14 49 0 54 -7 2 -14 -2 -16 -9z"/>
<path d="M520 510 c0 -28 13 -40 24 -22 7 12 -5 52 -15 52 -5 0 -9 -13 -9 -30z"/>
<path d="M1589 447 c-30 -23 -39 -56 -38 -139 1 -127 32 -168 104 -134 50 24
57 61 46 229 -1 17 -3 17 -16 3 -22 -22 -45 -9 -45 25 0 32 -22 39 -51 16z
m99 -161 c-2 -23 -8 -31 -23 -31 -15 0 -21 8 -23 29 -4 30 12 48 35 39 9 -4
13 -17 11 -37z"/>
<path d="M1656 313 c-12 -13 -6 -53 9 -53 9 0 15 9 15 24 0 26 -12 40 -24 29z"/>
<path d="M1655 448 c-10 -26 2 -55 17 -40 8 8 8 18 1 34 -10 21 -12 21 -18 6z"/>
<path d="M1655 120 c4 -6 11 -8 16 -5 14 9 11 15 -7 15 -8 0 -12 -5 -9 -10z"/>
<path d="M1902 448 c-7 -7 -12 -31 -12 -54 0 -74 54 -86 72 -17 15 60 -25 106
-60 71z"/>
<path d="M2480 401 c0 -12 5 -21 10 -21 6 0 10 6 10 14 0 8 -4 18 -10 21 -5 3
-10 -3 -10 -14z"/>
<path d="M343 365 c-37 -26 -56 -164 -32 -236 14 -42 35 -59 72 -59 41 0 63
15 76 51 16 47 14 174 -4 209 -25 49 -71 63 -112 35z"/>
<path d="M85 337 c-4 -10 -5 -21 -1 -24 10 -10 18 4 13 24 -4 17 -4 17 -12 0z"/>
<path d="M2137 333 c-13 -12 -7 -53 7 -53 20 0 29 16 21 40 -6 20 -17 25 -28
13z"/>
<path d="M1000 306 c0 -8 5 -18 10 -21 6 -3 10 3 10 14 0 12 -4 21 -10 21 -5
0 -10 -6 -10 -14z"/>
<path d="M781 251 c-12 -22 -4 -54 13 -48 13 4 18 54 6 62 -5 3 -14 -3 -19
-14z"/>
<path d="M80 215 c0 -8 5 -15 10 -15 6 0 10 7 10 15 0 8 -4 15 -10 15 -5 0
-10 -7 -10 -15z"/>
<path d="M2480 180 c0 -11 5 -20 10 -20 6 0 10 9 10 20 0 11 -4 20 -10 20 -5
0 -10 -9 -10 -20z"/>
<path d="M2134 155 c-7 -18 2 -45 15 -45 12 0 24 37 16 50 -9 15 -25 12 -31
-5z"/>
<path d="M778 88 c-7 -20 3 -49 16 -45 15 5 14 49 0 54 -7 2 -14 -2 -16 -9z"/>
<path d="M1584 2549 c-16 -18 -19 -37 -19 -135 0 -101 2 -115 20 -128 32 -24
103 -17 78 8 -10 10 -7 76 3 76 5 1 11 -14 14 -32 l5 -33 13 43 c16 52 7 119
-14 101 -24 -20 -46 -3 -42 33 3 35 33 51 49 26 5 -7 9 -8 9 -2 0 6 -9 23 -21
38 -25 32 -68 35 -95 5z"/>
<path d="M1654 2495 c-8 -20 3 -48 16 -40 13 8 13 55 0 55 -6 0 -13 -7 -16
-15z"/>
<path d="M914 102 c-17 -11 -26 -47 -18 -76 4 -19 13 -26 30 -26 28 0 42 39
28 78 -10 28 -23 36 -40 24z"/>
</g>
</svg>
